<svg xmlns="http://www.w3.org/2000/svg" viewBox="0 0 1247.75 1146.94"><defs><style>.cls-1{fill:#e7222e;}</style></defs><g id="Layer_2" data-name="Layer 2"><g id="Layer_2-2" data-name="Layer 2"><path class="cls-1" d="M983.16,261.16C873.37,292,247,473.38,247,473.38s-91.09,22.2-91.09-60.32,0-197.18,0-197.18L156,19.12S157.78,0,136.85,0,55,35.38,55,35.38,0,65.36,0,156,0,623.88,0,623.88s8.8,58.48,65.49,58.48S1200.27,360.78,1200.27,360.78s47.48-13.13,47.48-63V65.5S1247.28,0,1182.25,0h-70.83s-19.64.58-19.64,19.12V190s1.92,38.13-66.62,59Z"/><path class="cls-1" d="M264.59,885.79C374.38,855,1000.8,673.57,1000.8,673.57s91.09-22.2,91.09,60.32,0,197.17,0,197.17l-.09,196.77s-1.81,19.11,19.12,19.11,81.9-35.37,81.9-35.37,55-30,55-120.59,0-467.91,0-467.91-8.8-58.49-65.49-58.49S47.48,786.17,47.48,786.17,0,799.3,0,849.15v232.29s.47,65.5,65.5,65.5h70.83s19.64-.57,19.64-19.11V957s-1.92-38.13,66.62-59Z"/></g></g></svg>