<svg xmlns="http://www.w3.org/2000/svg" viewBox="0 0 4953.49 381.47"><defs><style>.cls-1{fill:#e7222e;}</style></defs><g id="Layer_2" data-name="Layer 2"><g id="Layer_2-2" data-name="Layer 2"><rect class="cls-1" x="2743.76" width="76.29" height="381.47"/><polygon class="cls-1" points="3886.86 0 3696.45 0 3620.16 0 3429.75 0 3429.75 76.29 3620.16 76.29 3620.16 381.47 3696.45 381.47 3696.45 76.29 3886.86 76.29 3886.86 0"/><polygon class="cls-1" points="1867.39 244.43 1921.3 244.43 2057.76 107.96 2057.84 381.47 2134.14 381.47 2134.14 0 2057.84 0 1867.09 190.74 1676.87 0 1600.65 0 1600.65 381.47 1676.94 381.47 1676.94 107.97 1813.4 244.43 1867.39 244.43"/><path class="cls-1" d="M76.29,152.59v38.14s.61,7.1,7.1,7.1,15-12.66,15-12.66L121,152.59H380.82V0h76.29V381.47H380.82V228.88H76.29V381.47H0V0H76.29Z"/><path class="cls-1" d="M533.3,38V343.47a38,38,0,0,0,38,38H953a38,38,0,0,0,38-38V38A38,38,0,0,0,953,0H571.3A38,38,0,0,0,533.3,38ZM894.66,305.2H654.33l-22.64,32.58s-7.92,12.66-15,12.66-7.09-7.09-7.09-7.09V96.29a20,20,0,0,1,20-20H894.66a20,20,0,0,1,20,20V285.2A20,20,0,0,1,894.66,305.2Z"/><path class="cls-1" d="M1067.24,0h457.12V76.29H1143.54V190.75s.4,7.09,7.09,7.09,15-12.66,15-12.66l22.63-32.58h259.79v76.3H1143.54V381.47h-76.3Z"/><path class="cls-1" d="M2210.35,0h457.11V76.29H2286.64V190.75s.32,7.09,7.1,7.09,15-12.66,15-12.66l22.63-32.58h259.79v76.3H2286.64v76.28h380.82v76.29H2210.35Z"/><path class="cls-1" d="M3962.88,0H4420V76.29H4039.17V190.75s.32,7.09,7.09,7.09,15-12.66,15-12.66l22.64-32.58H4343.7v76.3H4039.17v76.28H4420v76.29H3962.88Z"/><path class="cls-1" d="M2934.34,0h419.12V76.29H2992.62a20,20,0,0,0-20,20v94.46s.44,7.09,7.11,7.09,15-12.66,15-12.66l22.64-32.58h298.08a38,38,0,0,1,38,38V343.47a38,38,0,0,1-38,38H2896.34V305.18h360.82a20,20,0,0,0,20-20v-36.3a20,20,0,0,0-20-20H2934.34a38,38,0,0,1-38-38V38A38,38,0,0,1,2934.34,0Z"/><path class="cls-1" d="M4915.49,0H4496.38V381.47h76.29V228.9h120l152.88,152.57h107.9L4801.32,228.9h114.17a38,38,0,0,0,38-38V38A38,38,0,0,0,4915.49,0Zm-58.3,152.6H4617.41l-22.64,32.58s-8.41,12.66-15,12.66-7.09-7.09-7.09-7.09V76.29h284.52a20,20,0,0,1,20,20V132.6A20,20,0,0,1,4857.19,152.6Z"/></g></g></svg>